{"title":"Harry Potter and the Deathly Hallows [2010] Hindi Eng  [~TDT]","uid":5972971,"size":785345959,"categoryP":"video","categoryS":"movies","magnet":"?xt=urn:btih:51c8c253f2461d03fc37ee622db9e3fd0a12c6cd&amp;dn=Harry+Potter+and+the+Deathly+Hallows+%5B2010%5D+Hindi+Eng++%5B%7ETDT%5D&amp;tr=udp%3A%2F%2Ftracker.openbittorrent.com%3A80&amp;tr=udp%3A%2F%2Fopen.demonii.com%3A1337&amp;tr=udp%3A%2F%2Ftracker.coppersurfer.tk%3A6969&amp;tr=udp%3A%2F%2Fexodus.desync.com%3A6969","seeders":0,"leechers":1,"uploader":"amanrulz","files":2,"time":1290358315,"description":"mastitorrents.com\n &lt;a href=&quot;\nhttp://mastitorrents.com/forums/index.php&quot; rel=&quot;nofollow&quot; target=&quot;_NEW&quot;&gt;\nhttp://mastitorrents.com/forums/index.php&lt;/a&gt;\n\nGeneral\nComplete name                    : D:\\MOVIES\\DUBBED\\Harry Potter and the Deathly Hallows [2010] Dual-Audio-Rip By [~SAIF~] [~TDT]\\Harry Potter and the Deathly Hallows [2010] Dual-Audio-Rip By [~SAIF~] [~TDT].mkv\nFormat                           : Matroska\nFile size                        : 738 MiB\nDuration                         : 2h 13mn\nOverall bit rate                 : 772 Kbps\nEncoded date                     : UTC 2010-11-21 07:15:49\nWriting application              : mkvmerge v4.1.1 ('Bouncin' Back') built on Jul  3 2010 22:54:08\nWriting library                  : libebml v1.0.0 + libmatroska v1.0.0\n\nVideo\nID                               : 1\nFormat                           : MPEG-4 Visual\nFormat profile                   : Advanced Simple@L5\nFormat settings, BVOP            : Yes\nFormat settings, QPel            : No\nFormat settings, GMC             : No warppoints\nFormat settings, Matrix          : Default (H.263)\nCodec ID                         : XVID\nCodec ID/Hint                    : XviD\nDuration                         : 2h 13mn\nBit rate                         : 564 Kbps\nWidth                            : 624 pixels\nHeight                           : 272 pixels\nDisplay aspect ratio             : 2.25:1\nFrame rate                       : 25.000 fps\nColor space                      : YUV\nChroma subsampling               : 4:2:0\nBit depth                        : 8 bits\nScan type                        : Progressive\nBits/(Pixel*Frame)               : 0.133\nStream size                      : 540 MiB (73%)\nWriting library                  : XviD 1.2.1 (UTC 2008-12-04)\n\nAudio #1\nID                               : 2\nFormat                           : MPEG Audio\nFormat version                   : Version 1\nFormat profile                   : Layer 3\nMode                             : Joint stereo\nMode extension                   : MS Stereo\nCodec ID                         : A_MPEG/L3\nCodec ID/Hint                    : MP3\nDuration                         : 2h 13mn\nBit rate mode                    : Constant\nBit rate                         : 64.0 Kbps\nChannel(s)                       : 2 channels\nSampling rate                    : 48.0 KHz\nStream size                      : 61.2 MiB (8%)\nTitle                            : SAIF [hindi]\nLanguage                         : Hindi\n\nAudio #2\nID                               : 3\nFormat                           : MPEG Audio\nFormat version                   : Version 1\nFormat profile                   : Layer 3\nCodec ID                         : A_MPEG/L3\nCodec ID/Hint                    : MP3\nDuration                         : 2h 13mn\nBit rate mode                    : Constant\nBit rate                         : 128 Kbps\nChannel(s)                       : 2 channels\nSampling rate                    : 44.1 KHz\nStream size                      : 122 MiB (17%)\nTitle                            : SAIF [ENG]","torrent":{"xt":"urn:btih:51c8c253f2461d03fc37ee622db9e3fd0a12c6cd","amp;dn":"Harry+Potter+and+the+Deathly+Hallows+%5B2010%5D+Hindi+Eng++%5B%7ETDT%5D","amp;tr":["udp%3A%2F%2Ftracker.openbittorrent.com%3A80","udp%3A%2F%2Fopen.demonii.com%3A1337","udp%3A%2F%2Ftracker.coppersurfer.tk%3A6969","udp%3A%2F%2Fexodus.desync.com%3A6969"],"infoHash":"51c8c253f2461d03fc37ee622db9e3fd0a12c6cd","infoHashBuffer":{"type":"Buffer","data":[81,200,194,83,242,70,29,3,252,55,238,98,45,185,227,253,10,18,198,205]},"announce":[],"urlList":[]}}